<svg width="146" height="29" viewBox="0 0 146 29" fill="none" xmlns="http://www.w3.org/2000/svg">
<path d="M56.7625 27.2627C56.4757 23.3032 56.1455 19.3485 55.866 15.3891C55.8443 15.0782 55.6635 14.1263 55.7648 13.9094L59.9098 10.3379C60.0206 10.3066 60.2062 10.3452 60.2785 10.444C60.4809 10.7211 60.5629 11.8248 60.7725 12.2731C60.9822 12.7213 61.1605 12.4827 61.5075 12.2827C62.5197 11.7068 65.0453 9.50171 66.0815 9.574C67.7805 9.69209 69.641 12.6273 70.5856 13.8829L70.523 14.0685L67.366 16.77C67.0672 16.8856 66.9901 16.4085 66.8406 16.1844C66.5539 15.7482 66.0285 15.377 65.4766 15.4252C64.8573 15.4807 62.1172 17.1435 61.6112 17.6231C59.8977 19.2449 61.4859 21.3415 61.0448 23.3201C60.0568 24.3443 59.047 25.3709 57.9987 26.3324C57.777 26.5349 57.2179 27.0771 57.001 27.1928C56.9191 27.2361 56.8709 27.2868 56.7576 27.2602L56.7625 27.2627Z" fill="white"/>
<path d="M145.844 24.5105C145.907 24.5876 145.905 24.7756 145.844 24.8551C145.719 25.8239 145.066 27.0843 144.56 27.988C144.112 28.7832 144.095 28.8001 142.909 28.5591C134.086 25.9179 124.84 26.289 115.793 27.4722L107.406 28.5639C106.821 28.6218 106.23 28.6579 105.642 28.6435C105.534 28.6676 105.418 28.6892 105.298 28.7133H104.816C104.611 28.5688 104.454 28.3711 104.594 28.1133L112.142 16.5217C112.378 16.165 112.467 15.83 111.942 15.7698C109.457 15.4854 106.524 16.071 104.021 15.8421C102.972 15.7457 103.837 14.5769 104.115 14.0708C104.433 13.4924 105.775 11.1139 106.194 10.8512C106.271 10.803 106.341 10.7524 106.435 10.7476C110.706 10.803 114.976 10.8391 119.234 10.9524C119.851 10.9693 120.659 10.8729 121.237 10.9452C121.647 10.9982 121.55 11.2344 121.365 11.4946C119.222 14.8733 117.012 18.2303 114.945 21.6451L115.116 21.8114C124.613 20.0811 134.814 20.1799 143.936 23.5658C144.235 23.6767 145.661 24.1876 145.782 24.337C145.83 24.3972 145.832 24.4406 145.844 24.5105Z" fill="white"/>
<path d="M104.794 24.8335L101.989 27.0868L101.68 27.1977C100.724 26.882 99.7911 26.4434 98.8224 26.1277C96.9017 25.5011 94.8316 25.0601 92.8048 24.9854C87.4332 24.7878 82.6953 27.9664 77.2779 26.2602C70.9615 24.272 70.0506 16.6833 73.5739 11.7478C77.5984 6.10864 85.5607 9.47045 89.2936 13.695C89.4912 13.9191 90.6432 15.3771 90.6046 15.5603C90.5564 15.7772 89.2671 17.2159 89.0189 17.4834C88.6381 17.893 87.9561 18.6473 87.5392 18.963C87.3151 19.1341 87.2091 19.1823 86.9536 18.9944C85.9415 17.305 84.6401 15.3867 82.9194 14.3553C77.4466 11.0779 73.3835 19.5438 78.9769 21.8091C82.0904 23.0695 86.421 20.7126 89.6479 20.2451C94.5062 19.5414 100.77 20.5319 104.474 23.9853C104.731 24.2263 105.052 24.4456 104.796 24.8263L104.794 24.8335Z" fill="white"/>
<path d="M50.9619 9.17161C51.1185 9.13064 51.2944 9.22704 51.3547 9.36681C51.4848 9.66082 51.3764 11.649 51.3884 12.1551C51.4583 15.3819 51.6632 19.0739 51.4631 22.2742C51.4535 22.4429 51.4246 22.802 51.374 22.9442C51.3089 23.1297 50.0293 24.1539 49.7714 24.3708C48.7592 25.2167 47.7037 26.0216 46.6747 26.8482C46.5759 26.7831 46.5807 26.7157 46.5686 26.612C46.4096 25.1685 46.5397 23.2816 46.506 21.7874C46.453 19.4257 46.2698 16.917 46.3638 14.5601C46.3783 14.1914 46.3951 13.5335 46.453 13.2034C46.6144 12.2442 48.5231 10.8393 49.3063 10.2729C49.5955 10.0657 50.7185 9.23427 50.9643 9.17161H50.9619Z" fill="white"/>
<path d="M51.4607 5.26977C49.9738 6.88199 48.4459 8.45084 46.8771 9.98112C46.7421 10.01 46.6602 9.77146 46.6457 9.67025C46.5493 9.03403 46.5228 8.07007 46.5011 7.40494C46.4722 6.55184 46.4264 5.33243 46.5011 4.50824C46.5108 4.39016 46.5059 4.2769 46.583 4.17568L51.2896 0.00414587C51.3474 -0.022363 51.4607 0.0860824 51.4607 0.107771V5.26977Z" fill="white"/>
<path d="M14.7001 17.9698C12.818 15.4707 9.72608 14.0176 7.24389 12.174C5.74734 11.063 4.82676 10.3497 4.27249 8.46997C2.06502 0.980004 10.4298 -0.381589 15.64 1.91745C15.9894 2.07169 17.551 2.81394 17.6306 3.09589C17.7318 3.4622 16.4786 6.07694 16.2497 6.61194C16.1846 6.76617 15.975 7.47709 15.9364 7.5036C15.7725 7.61686 15.3556 7.06982 15.2134 6.95655C14.2061 6.15647 12.9987 5.65521 11.7046 5.57809C11.0274 5.53712 9.23205 5.58773 9.06818 6.45529C8.86093 7.5518 10.6202 8.62902 11.4178 9.10136C15.064 11.2534 21.8455 14.8514 21.5153 19.7941C21.4551 20.6785 21.0165 21.4015 20.9104 22.1534C20.8646 22.4835 21.0767 22.6884 21.2526 22.9486C21.5081 23.327 22.8576 24.8549 22.8263 25.1609L19.9537 28.4938C19.8669 28.5251 19.8211 28.4793 19.7585 28.436C19.3078 28.1323 18.5053 26.8936 17.9728 26.9105C17.686 26.9201 16.8088 27.4696 16.469 27.6166C14.9724 28.2576 13.5843 28.583 11.948 28.6384C11.6757 28.648 11.3937 28.6456 11.1214 28.6384C5.89435 28.5034 -1.62936 25.4429 0.313023 18.8976C1.64329 14.4152 7.01495 13.9067 10.8154 15.3526C12.2276 15.89 13.4976 17.0492 14.635 18.0397C14.8664 18.2397 14.8881 18.218 14.7049 17.9698H14.7001ZM13.3217 23.5463C13.3409 23.3318 13.1867 23.1679 13.0734 23.0017C12.3963 22.0088 10.8852 20.8496 9.78633 20.3676C8.68742 19.8857 4.39539 18.8494 5.65095 21.3364C6.76914 23.5511 11.1479 24.0548 13.3192 23.5463H13.3217Z" fill="white"/>
<path d="M29.3643 15.9743L35.7867 10.0339C35.9675 9.93513 36.1458 10.0918 36.2374 10.2364C38.5436 14.6272 41.0427 18.912 43.4912 23.2209C43.5659 23.4137 43.5851 23.6932 43.508 23.8884C42.5971 24.8789 41.7512 25.9441 40.8258 26.9201C40.7077 27.0454 40.4667 27.3225 40.3438 27.4045C40.151 27.537 40.0498 27.3274 39.9486 27.1731C38.1797 24.4716 36.8736 21.1171 35.1288 18.3625C34.63 17.36 33.56 18.2011 32.9768 18.6614C30.6078 20.5194 28.0678 24.0692 26.2363 26.5152C26.0941 26.7056 25.3567 27.8286 25.2844 27.8696C25.2121 27.9106 25.1085 27.8792 25.0241 27.8865C24.9783 26.6164 25.0096 25.332 24.9566 24.062C24.7638 19.2687 24.3469 14.4706 24.2626 9.67968C24.2385 8.35424 24.1927 6.78299 24.3349 5.47923C24.3638 5.21655 24.4216 4.67673 24.5783 4.48394L28.1497 1.24022C28.492 1.01851 28.6486 1.39445 28.6703 1.69087C28.8414 6.45524 29.1667 11.2051 29.3595 15.9743H29.3643Z" fill="white"/>
</svg>
