<svg width="178" height="61" viewBox="0 0 178 61" fill="none" xmlns="http://www.w3.org/2000/svg">
<path d="M72.8172 27.2627C72.5304 23.3032 72.2003 19.3485 71.9207 15.3891C71.899 15.0782 71.7183 14.1263 71.8195 13.9094L75.9645 10.3379C76.0754 10.3066 76.2609 10.3452 76.3332 10.444C76.5357 10.7211 76.6176 11.8248 76.8273 12.2731C77.0369 12.7213 77.2153 12.4827 77.5623 12.2827C78.5745 11.7068 81.1 9.50171 82.1363 9.574C83.8353 9.69209 85.6957 12.6273 86.6404 13.8829L86.5777 14.0685L83.4208 16.77C83.1219 16.8856 83.0448 16.4085 82.8954 16.1844C82.6086 15.7482 82.0833 15.377 81.5314 15.4252C80.912 15.4807 78.172 17.1435 77.6659 17.6231C75.9525 19.2449 77.5406 21.3415 77.0996 23.3201C76.1115 24.3443 75.1018 25.3709 74.0535 26.3324C73.8318 26.5349 73.2727 27.0771 73.0558 27.1928C72.9738 27.2361 72.9256 27.2868 72.8124 27.2602L72.8172 27.2627Z" fill="white"/>
<path d="M161.899 24.5105C161.962 24.5876 161.959 24.7756 161.899 24.8551C161.774 25.8239 161.121 27.0843 160.615 27.988C160.166 28.7832 160.15 28.8001 158.964 28.5591C150.141 25.9179 140.894 26.289 131.848 27.4722L123.461 28.5639C122.876 28.6218 122.285 28.6579 121.697 28.6435C121.589 28.6676 121.473 28.6892 121.353 28.7133H120.871C120.666 28.5688 120.509 28.3711 120.649 28.1133L128.197 16.5217C128.433 16.165 128.522 15.83 127.997 15.7698C125.512 15.4854 122.579 16.071 120.075 15.8421C119.027 15.7457 119.892 14.5769 120.169 14.0708C120.487 13.4924 121.83 11.1139 122.249 10.8512C122.326 10.803 122.396 10.7524 122.49 10.7476C126.76 10.803 131.031 10.8391 135.289 10.9524C135.906 10.9693 136.713 10.8729 137.292 10.9452C137.701 10.9982 137.605 11.2344 137.419 11.4946C135.277 14.8733 133.067 18.2303 130.999 21.6451L131.17 21.8114C140.668 20.0811 150.869 20.1799 159.99 23.5658C160.289 23.6767 161.716 24.1876 161.836 24.337C161.885 24.3972 161.887 24.4406 161.899 24.5105Z" fill="white"/>
<path d="M120.849 24.8335L118.044 27.0868L117.735 27.1977C116.779 26.882 115.846 26.4434 114.877 26.1277C112.956 25.5011 110.886 25.0601 108.86 24.9854C103.488 24.7878 98.7501 27.9664 93.3326 26.2602C87.0163 24.272 86.1053 16.6833 89.6286 11.7478C93.6531 6.10864 101.615 9.47045 105.348 13.695C105.546 13.9191 106.698 15.3771 106.659 15.5603C106.611 15.7772 105.322 17.2159 105.074 17.4834C104.693 17.893 104.011 18.6473 103.594 18.963C103.37 19.1341 103.264 19.1823 103.008 18.9944C101.996 17.305 100.695 15.3867 98.9742 14.3553C93.5013 11.0779 89.4382 19.5438 95.0316 21.8091C98.1452 23.0695 102.476 20.7126 105.703 20.2451C110.561 19.5414 116.824 20.5319 120.528 23.9853C120.786 24.2263 121.107 24.4456 120.851 24.8263L120.849 24.8335Z" fill="white"/>
<path d="M67.0166 9.17161C67.1733 9.13064 67.3492 9.22704 67.4094 9.36681C67.5396 9.66082 67.4311 11.649 67.4432 12.1551C67.5131 15.3819 67.7179 19.0739 67.5179 22.2742C67.5083 22.4429 67.4793 22.802 67.4287 22.9442C67.3637 23.1297 66.084 24.1539 65.8261 24.3708C64.814 25.2167 63.7585 26.0216 62.7294 26.8482C62.6306 26.7831 62.6354 26.7157 62.6234 26.612C62.4643 25.1685 62.5945 23.2816 62.5607 21.7874C62.5077 19.4257 62.3246 16.917 62.4185 14.5601C62.433 14.1914 62.4499 13.5335 62.5077 13.2034C62.6692 12.2442 64.5778 10.8393 65.361 10.2729C65.6502 10.0657 66.7732 9.23427 67.019 9.17161H67.0166Z" fill="white"/>
<path d="M67.5154 5.26977C66.0285 6.88199 64.5006 8.45084 62.9318 9.98112C62.7969 10.01 62.7149 9.77146 62.7005 9.67025C62.6041 9.03403 62.5776 8.07007 62.5559 7.40494C62.5269 6.55184 62.4812 5.33243 62.5559 4.50824C62.5655 4.39016 62.5607 4.2769 62.6378 4.17568L67.3443 0.00414587C67.4022 -0.022363 67.5154 0.0860824 67.5154 0.107771V5.26977Z" fill="white"/>
<path d="M30.7549 17.9698C28.8727 15.4707 25.7808 14.0176 23.2986 12.174C21.8021 11.063 20.8815 10.3497 20.3272 8.46997C18.1198 0.980004 26.4845 -0.381589 31.6947 1.91745C32.0442 2.07169 33.6058 2.81394 33.6853 3.09589C33.7865 3.4622 32.5334 6.07694 32.3044 6.61194C32.2394 6.76617 32.0297 7.47709 31.9911 7.5036C31.8273 7.61686 31.4104 7.06982 31.2682 6.95655C30.2608 6.15647 29.0535 5.65521 27.7594 5.57809C27.0822 5.53712 25.2868 5.58773 25.1229 6.45529C24.9157 7.5518 26.6749 8.62902 27.4726 9.10136C31.1188 11.2534 37.9002 14.8514 37.5701 19.7941C37.5098 20.6785 37.0712 21.4015 36.9652 22.1534C36.9194 22.4835 37.1315 22.6884 37.3074 22.9486C37.5628 23.327 38.9124 24.8549 38.881 25.1609L36.0084 28.4938C35.9217 28.5251 35.8759 28.4793 35.8132 28.436C35.3626 28.1323 34.5601 26.8936 34.0275 26.9105C33.7407 26.9201 32.8635 27.4696 32.5237 27.6166C31.0272 28.2576 29.6391 28.583 28.0028 28.6384C27.7304 28.648 27.4485 28.6456 27.1762 28.6384C21.9491 28.5034 14.4254 25.4429 16.3678 18.8976C17.698 14.4152 23.0697 13.9067 26.8701 15.3526C28.2823 15.89 29.5523 17.0492 30.6898 18.0397C30.9211 18.2397 30.9428 18.218 30.7597 17.9698H30.7549ZM29.3764 23.5463C29.3957 23.3318 29.2414 23.1679 29.1282 23.0017C28.451 22.0088 26.94 20.8496 25.8411 20.3676C24.7422 19.8857 20.4501 18.8494 21.7057 21.3364C22.8239 23.5511 27.2027 24.0548 29.374 23.5463H29.3764Z" fill="white"/>
<path d="M45.4191 15.9743L51.8415 10.0339C52.0222 9.93513 52.2005 10.0918 52.2921 10.2364C54.5984 14.6272 57.0974 18.912 59.5459 23.2209C59.6206 23.4137 59.6399 23.6932 59.5628 23.8884C58.6518 24.8789 57.806 25.9441 56.8806 26.9201C56.7625 27.0454 56.5215 27.3225 56.3986 27.4045C56.2058 27.537 56.1046 27.3274 56.0034 27.1731C54.2345 24.4716 52.9283 21.1171 51.1836 18.3625C50.6847 17.36 49.6147 18.2011 49.0315 18.6614C46.6626 20.5194 44.1226 24.0692 42.291 26.5152C42.1489 26.7056 41.4114 27.8286 41.3391 27.8696C41.2668 27.9106 41.1632 27.8792 41.0789 27.8865C41.0331 26.6164 41.0644 25.332 41.0114 24.062C40.8186 19.2687 40.4017 14.4706 40.3173 9.67968C40.2932 8.35424 40.2474 6.78299 40.3896 5.47923C40.4185 5.21655 40.4764 4.67673 40.633 4.48394L44.2045 1.24022C44.5467 1.01851 44.7033 1.39445 44.725 1.69087C44.8961 6.45524 45.2215 11.2051 45.4143 15.9743H45.4191Z" fill="white"/>
<path d="M19.5038 45.3099L18.2213 41.9374L16.9863 45.3099H19.5038ZM17.9553 41.2534H18.4778L20.9383 47.6659L20.4158 47.7704L19.6558 45.7279H16.8438L16.1218 47.7134H15.6088L17.9553 41.2534ZM28.1778 44.2459L28.2348 44.6354H26.0023V47.7134H25.4798V41.2534H28.7288L28.7953 41.6524H26.0023V44.2459H28.1778ZM35.8519 44.8634L35.9089 44.4644H37.8279V47.4189C37.7075 47.4949 37.5492 47.5677 37.3529 47.6374C37.1629 47.7007 36.9634 47.7514 36.7544 47.7894C36.5454 47.8274 36.3459 47.8464 36.1559 47.8464C35.5035 47.8464 34.9367 47.7007 34.4554 47.4094C33.974 47.118 33.6035 46.7222 33.3439 46.2219C33.0842 45.7152 32.9544 45.1484 32.9544 44.5214C32.9544 44.021 33.0367 43.565 33.2014 43.1534C33.366 42.7354 33.594 42.3744 33.8854 42.0704C34.1767 41.7664 34.5219 41.532 34.9209 41.3674C35.3199 41.2027 35.7505 41.1204 36.2129 41.1204C36.3459 41.1204 36.5137 41.133 36.7164 41.1584C36.919 41.1837 37.1185 41.2217 37.3149 41.2724C37.5175 41.323 37.6759 41.3895 37.7899 41.4719L37.6094 41.8424C37.4827 41.7854 37.356 41.7379 37.2294 41.6999C37.1027 41.6555 36.9602 41.6239 36.8019 41.6049C36.6499 41.5795 36.4599 41.5669 36.2319 41.5669C35.8582 41.5669 35.5099 41.6365 35.1869 41.7759C34.8639 41.9152 34.5757 42.1147 34.3224 42.3744C34.0754 42.634 33.879 42.9444 33.7334 43.3054C33.594 43.6664 33.5244 44.0717 33.5244 44.5214C33.5244 45.085 33.6384 45.5854 33.8664 46.0224C34.0944 46.453 34.4047 46.7887 34.7974 47.0294C35.1964 47.2637 35.646 47.3809 36.1464 47.3809C36.3744 47.3809 36.5834 47.3587 36.7734 47.3144C36.9697 47.27 37.147 47.2194 37.3054 47.1624V44.8634H35.8519ZM47.177 47.7134H46.6545V44.6544H43.358V47.7134H42.8355V41.2534L43.358 41.2059V44.2364H46.6545V41.2534H47.177V47.7134ZM55.616 45.3099L54.3335 41.9374L53.0985 45.3099H55.616ZM54.0675 41.2534H54.59L57.0505 47.6659L56.528 47.7704L55.768 45.7279H52.956L52.234 47.7134H51.721L54.0675 41.2534ZM62.1146 47.7134H61.5921V41.2534H61.9151L65.2496 46.0224L65.5726 46.5829V41.2534H66.1046V47.7134H65.7816L62.2476 42.5929L62.1146 42.3174V47.7134ZM78.8745 41.6904H77.7725V44.5689H78.77C79.093 44.5689 79.3938 44.5245 79.6725 44.4359C79.9575 44.3409 80.1918 44.1857 80.3755 43.9704C80.5591 43.755 80.651 43.47 80.651 43.1154C80.651 42.748 80.5686 42.463 80.404 42.2604C80.2456 42.0514 80.0335 41.9057 79.7675 41.8234C79.5015 41.7347 79.2038 41.6904 78.8745 41.6904ZM77.25 41.2534H78.8555C79.3051 41.2534 79.7041 41.3135 80.0525 41.4339C80.4008 41.5479 80.6763 41.741 80.879 42.0134C81.0816 42.2794 81.183 42.6404 81.183 43.0964C81.1766 43.5397 81.0658 43.8975 80.8505 44.1699C80.6351 44.4422 80.3565 44.6449 80.0145 44.7779L81.696 47.7134H81.107L79.5585 44.9204C79.4318 44.9457 79.2988 44.9647 79.1595 44.9774C79.0201 44.99 78.884 44.9964 78.751 44.9964H77.7725V47.7134H77.25V41.2534ZM89.8581 47.7134H86.2386V41.2534H89.5921L89.6396 41.6524H86.7611V44.2079H89.0411L89.0886 44.5974H86.7611V47.2954H89.8011L89.8581 47.7134ZM94.0858 47.4379L94.2283 47.0294C94.3423 47.08 94.4817 47.137 94.6463 47.2004C94.811 47.2574 94.9915 47.3049 95.1878 47.3429C95.3905 47.3809 95.5963 47.3999 95.8053 47.3999C96.1727 47.3999 96.4798 47.346 96.7268 47.2384C96.9738 47.1244 97.1607 46.9755 97.2873 46.7919C97.4203 46.6082 97.4868 46.4087 97.4868 46.1934C97.4868 45.9527 97.4235 45.7437 97.2968 45.5664C97.1702 45.3827 96.977 45.2149 96.7173 45.0629C96.4577 44.9045 96.1378 44.7462 95.7578 44.5879C95.4728 44.4739 95.2227 44.3504 95.0073 44.2174C94.792 44.078 94.6115 43.9292 94.4658 43.7709C94.3202 43.6125 94.2093 43.4415 94.1333 43.2579C94.0573 43.0679 94.0193 42.8652 94.0193 42.6499C94.0193 42.3585 94.0985 42.0957 94.2568 41.8614C94.4215 41.627 94.6495 41.4434 94.9408 41.3104C95.2385 41.171 95.59 41.1014 95.9953 41.1014C96.312 41.1014 96.6097 41.1394 96.8883 41.2154C97.167 41.2914 97.4013 41.3769 97.5913 41.4719L97.3823 41.8614C97.2747 41.8107 97.1543 41.76 97.0213 41.7094C96.8947 41.6587 96.749 41.6175 96.5843 41.5859C96.426 41.5542 96.236 41.5384 96.0143 41.5384C95.5583 41.5384 95.1973 41.646 94.9313 41.8614C94.6653 42.0767 94.5323 42.349 94.5323 42.6784C94.5323 42.919 94.5988 43.1312 94.7318 43.3149C94.8648 43.4985 95.0612 43.6695 95.3208 43.8279C95.5868 43.9862 95.9067 44.1509 96.2803 44.3219C96.5653 44.4485 96.8155 44.5784 97.0308 44.7114C97.2525 44.838 97.433 44.9742 97.5723 45.1199C97.718 45.2655 97.8257 45.427 97.8953 45.6044C97.9713 45.7817 98.0093 45.9844 98.0093 46.2124C98.0093 46.529 97.9238 46.8109 97.7528 47.0579C97.5818 47.2985 97.3317 47.4885 97.0023 47.6279C96.6793 47.7672 96.2835 47.8369 95.8148 47.8369C95.6818 47.8369 95.533 47.8242 95.3683 47.7989C95.2037 47.7799 95.0358 47.7514 94.8648 47.7134C94.7002 47.6754 94.5482 47.6342 94.4088 47.5899C94.2758 47.5392 94.1682 47.4885 94.0858 47.4379ZM106.9 41.2534L106.948 41.6714H104.725V47.7134H104.193V41.6714H101.979V41.2534H106.9ZM114.547 45.3099L113.265 41.9374L112.03 45.3099H114.547ZM112.999 41.2534H113.521L115.982 47.6659L115.459 47.7704L114.699 45.7279H111.887L111.165 47.7134H110.652L112.999 41.2534ZM120.951 41.2534V45.4144C120.951 45.7817 121.024 46.1142 121.169 46.4119C121.321 46.7095 121.53 46.947 121.796 47.1244C122.069 47.2954 122.385 47.3809 122.746 47.3809C123.126 47.3809 123.449 47.2954 123.715 47.1244C123.988 46.947 124.193 46.7095 124.333 46.4119C124.478 46.1142 124.551 45.7817 124.551 45.4144V41.2534H125.074V45.4429C125.074 45.8989 124.982 46.3074 124.798 46.6684C124.615 47.0294 124.349 47.3144 124 47.5234C123.658 47.726 123.24 47.8274 122.746 47.8274C122.265 47.8274 121.85 47.726 121.502 47.5234C121.153 47.3144 120.887 47.0294 120.704 46.6684C120.52 46.3074 120.428 45.8989 120.428 45.4429V41.2534H120.951ZM131.981 41.6904H130.879V44.5689H131.876C132.199 44.5689 132.5 44.5245 132.779 44.4359C133.064 44.3409 133.298 44.1857 133.482 43.9704C133.665 43.755 133.757 43.47 133.757 43.1154C133.757 42.748 133.675 42.463 133.51 42.2604C133.352 42.0514 133.14 41.9057 132.874 41.8234C132.608 41.7347 132.31 41.6904 131.981 41.6904ZM130.356 41.2534H131.962C132.411 41.2534 132.81 41.3135 133.159 41.4339C133.507 41.5479 133.782 41.741 133.985 42.0134C134.188 42.2794 134.289 42.6404 134.289 43.0964C134.283 43.5397 134.172 43.8975 133.957 44.1699C133.741 44.4422 133.463 44.6449 133.121 44.7779L134.802 47.7134H134.213L132.665 44.9204C132.538 44.9457 132.405 44.9647 132.266 44.9774C132.126 44.99 131.99 44.9964 131.857 44.9964H130.879V47.7134H130.356V41.2534ZM142.404 45.3099L141.121 41.9374L139.886 45.3099H142.404ZM140.855 41.2534H141.378L143.838 47.6659L143.316 47.7704L142.556 45.7279H139.744L139.022 47.7134H138.509L140.855 41.2534ZM148.902 47.7134H148.38V41.2534H148.703L152.037 46.0224L152.36 46.5829V41.2534H152.892V47.7134H152.569L149.035 42.5929L148.902 42.3174V47.7134ZM162.344 41.2534L162.392 41.6714H160.169V47.7134H159.637V41.6714H157.423V41.2534H162.344Z" fill="white"/>
</svg>
