<svg width="28" height="28" viewBox="0 0 28 28" fill="none" xmlns="http://www.w3.org/2000/svg">
<g clip-path="url(#clip0_3601_1251)">
<path d="M25.6667 19.74V23.24C25.6694 23.897 25.3949 24.5247 24.9108 24.9688C24.4267 25.413 23.7777 25.6324 23.1234 25.5733C19.5334 25.1832 16.0849 23.9565 13.0551 21.9916C8.85456 19.5748 5.53558 15.8798 3.58172 11.445C1.621 8.4141 0.398277 4.96569 0.0117188 1.37665C0.414739 0.471296 1.34567 -0.0807157 2.33339 -1.94027e-05H5.83338C7.00456 -0.0115463 8.0028 0.846943 8.16672 2.00665C8.31445 3.12672 8.58841 4.2265 8.98339 5.28498C9.30391 6.13767 9.0989 7.09892 8.45839 7.74665L7.10505 9.22831C8.76587 12.1491 11.1842 14.5675 14.1051 16.2283L15.5867 14.7466C16.2344 14.1061 17.1957 13.9011 18.0484 14.2216C19.1069 14.6166 20.2066 14.8906 21.3267 15.0383C21.9803 13.8407 23.4832 13.3989 24.6809 14.0525C25.8785 14.706 26.3203 16.209 25.6667 17.4066V19.74" stroke="#C2844B" stroke-width="1.75"/>
</g>
<defs>
<clipPath id="clip0_3601_1251">
<rect width="28" height="28" fill="white"/>
</clipPath>
</defs>
</svg>
